<?xml version="1.0" encoding="utf-8"?>
<!-- Generator: Adobe Illustrator 19.0.0, SVG Export Plug-In . SVG Version: 6.00 Build 0)  -->
<svg version="1.1" id="Layer_1" xmlns="http://www.w3.org/2000/svg" xmlns:xlink="http://www.w3.org/1999/xlink" x="0px" y="0px"
	 viewBox="0 0 337.9 47.2" style="enable-background:new 0 0 337.9 47.2;" xml:space="preserve">
<style type="text/css">
	.st0{fill:#231F20;}
</style>
<g>
	<path class="st0" d="M306.8,13.9c0-4,1.5-7.3,4.4-10c2.9-2.6,6.6-3.9,11.1-3.9c4.5,0,8.3,1.3,11.2,4c2.9,2.6,4.4,6,4.4,9.9
		c0,4-1.5,7.3-4.5,10c-3,2.7-6.7,4.1-11,4.1c-4.5,0-8.2-1.3-11.2-4C308.3,21.3,306.8,17.9,306.8,13.9L306.8,13.9z M311.3,13.9
		c0,4.1,1,7.3,3,9.7c2,2.3,4.7,3.5,8.2,3.5c3.4,0,6-1.2,8.1-3.5c2-2.4,3-5.6,3-9.6c0-4.1-1-7.3-3-9.6c-2-2.3-4.7-3.5-8.2-3.5
		c-3.5,0-6.2,1.1-8.2,3.4C312.3,6.5,311.3,9.8,311.3,13.9L311.3,13.9z M278.2,6.6l1.9-5.8h25.1l2,5.8l-0.4,0.1
		c-1.4-1.6-2.8-2.8-4.4-3.7c-1.6-0.9-3.2-1.3-4.8-1.3c-1.2,0-2,0.2-2.4,0.7c-0.4,0.5-0.6,1.7-0.6,3.6v1.7v9c0,0.9,0,1.7,0,2.5v8
		c-0.6,0-1.3,0-2.1,0c-0.6,0-1.2,0-1.6,0v-7.8c0-0.8,0-1.7,0-2.7V5.9c0-1.9-0.2-3.1-0.6-3.5c-0.4-0.5-1.1-0.7-2.2-0.7
		c-1.7,0-3.4,0.4-5,1.3c-1.6,0.9-3.1,2.1-4.5,3.7L278.2,6.6L278.2,6.6z M246.7,27.2v-0.3c1.4-0.3,2.3-1.3,2.9-2.9
		c0.6-1.6,0.8-4.5,0.8-8.9v-9c0-1.8-0.2-3-0.6-3.6c-0.4-0.6-1.2-1.1-2.2-1.5V0.7c0.5,0,1.1,0,1.8,0c0.7,0,1.2,0,1.4,0
		c0.2,0,0.8,0,1.6,0c0.6,0,1.1,0,1.5,0c4,4.4,7.5,8.1,10.5,11.3c3,3.1,6,6,9,8.6v-9c0-3.9-0.3-6.5-0.8-7.8c-0.5-1.3-1.5-2.3-2.8-2.9
		V0.7c0.2,0,0.4,0,0.8,0c1.5,0.1,2.6,0.1,3.1,0.1c0.2,0,0.5,0,0.8,0v9c0,0.8,0,1.7,0,2.7V28h-0.4c-3.9-4.7-10.1-11.4-18.5-20
		c-1.8-1.9-3.1-3.3-4-4.2V14c0,5.3,0.3,8.7,0.8,10.1c0.5,1.5,1.5,2.4,2.8,2.8v0.3h-2.6h-2.8H246.7L246.7,27.2z M221.1,0.8L221.1,0.8
		c0.9,0,2.3,0,4.2,0h16.9l2.2,5.8l-0.3,0.1c-1.5-1.8-3.2-3.1-5.1-3.8c-1.9-0.7-4.9-1.1-9.1-1.1h-2.6c-0.4,0-0.7,0-1.2,0
		c-0.4,0-0.9,0-1.3,0v10.8c0.4,0,0.9,0,1.5,0.1c0.6,0,1,0,1.1,0h4.8c2.3,0,4-0.3,5.1-0.8c1.1-0.6,2-1.5,2.5-2.8h0.2v8.1h-0.2
		c-0.5-1.3-1.3-2.2-2.5-2.8c-1.2-0.6-2.9-0.8-5.1-0.8h-5.1h-1.2c0,0-0.2,0-0.4,0c-0.2,0-0.5,0-0.7,0.1l0,5.8c0,2,0,3.3,0.1,4
		c0.1,0.6,0.1,1.1,0.2,1.3c0.2,0.6,0.6,0.9,1.3,1.2c0.6,0.2,2.1,0.3,4.2,0.3c4.3,0,7.5-0.4,9.6-1.2c2.2-0.8,4-2.2,5.4-4.1l0.2,0
		l-2.2,6.2h-20.9h-1.4h-0.3V0.8L221.1,0.8z M184.4,13.2l0-7.1c0-1.6-0.2-2.8-0.6-3.5c-0.4-0.7-1.2-1.2-2.3-1.6V0.7c0.6,0,1.3,0,2,0
		c0.7,0,1.2,0,1.3,0c0.8,0,1.4,0,1.9,0c0.5,0,1,0,1.6-0.1c1.8,4,3.6,7.8,5.4,11.2c1.8,3.5,3.6,6.8,5.4,10l9.9-21.2
		c0.1,0,0.3,0,0.5,0c1,0,1.7,0.1,2.1,0.1c0.7,0,1.9,0,3.5-0.1h0.2V1c-0.9,0.1-1.6,0.6-1.9,1.2c-0.4,0.7-0.5,2-0.5,3.8v12.3
		c0,3.4,0.2,5.6,0.6,6.7c0.4,1.1,1.2,1.7,2.3,2v0.3c-1,0-1.9-0.1-2.7-0.1c-0.8,0-1.5,0-2.1,0c-0.7,0-1.4,0-2.1,0
		c-0.8,0-1.6,0.1-2.4,0.1V27c1.1-0.3,1.9-0.9,2.3-2c0.4-1.1,0.6-3.4,0.6-7V2.8L197.6,28h-0.3c-1.7-3.8-3.4-7.6-5.2-11.3
		c-1.8-3.7-4-8-6.6-12.9l0,9.2v3.1c0,0.6,0,1.1,0,1.6v9.5h-0.4l-0.7,0L184.4,13.2L184.4,13.2L184.4,13.2z M170.1,27.3l0-0.3
		c1.2-0.3,2-0.9,2.4-1.9c0.4-1,0.6-3.4,0.6-7.1V4.2c0-0.9-0.2-1.7-0.6-2.2c-0.4-0.5-1.1-0.9-2-1.1V0.6c0.1,0,0.3,0,0.6,0
		c1.8,0.1,3,0.1,3.7,0.1c1.3,0,2.7,0,4-0.1c0.3,0,0.4,0,0.5,0h0v0.3c-0.9,0.2-1.5,0.5-2,1c-0.4,0.5-0.6,1.3-0.6,2.2v14.1
		c0,3.5,0.2,5.7,0.6,6.7c0.4,1,1.2,1.7,2.5,2v0.3c-1.1,0-2.1-0.1-2.9-0.1c-0.9,0-1.6,0-2.2,0c-0.8,0-1.5,0-2.3,0
		C171.7,27.2,170.9,27.3,170.1,27.3L170.1,27.3z M166.2,24.3c-1.8,1.2-3.7,2.2-5.7,2.8c-2,0.6-4.2,0.9-6.6,0.9
		c-4.6,0-8.4-1.3-11.3-3.9c-2.9-2.6-4.4-6-4.4-10.2c0-4.1,1.5-7.5,4.4-10C145.5,1.3,149.3,0,154,0c2.1,0,4.1,0.3,6,0.8
		c1.9,0.5,3.7,1.3,5.4,2.3l-1.5,4.9l-0.4-0.1c-0.7-2.4-1.8-4.1-3.2-5.3c-1.5-1.1-3.4-1.7-5.8-1.7c-3.6,0-6.5,1.2-8.6,3.6
		c-2.1,2.4-3.2,5.6-3.2,9.8c0,3.8,1.1,6.9,3.3,9.3c2.2,2.4,5,3.5,8.4,3.5c2.6,0,4.7-0.7,6.4-2.1c1.7-1.4,2.8-3.3,3.3-5.8l0.4-0.1
		L166.2,24.3L166.2,24.3z M108.9,25.4l1.8-5.9l0.3,0c0.4,2.2,1.5,4,3.5,5.5c1.9,1.4,4.3,2.1,6.9,2.1c2.5,0,4.6-0.6,6.2-1.9
		c1.6-1.2,2.5-2.8,2.5-4.6c0-1-0.3-1.9-0.7-2.6c-0.5-0.7-1.3-1.3-2.3-1.7c-0.9-0.4-2.3-0.7-4.3-0.9c-2-0.2-3.5-0.5-4.4-0.7
		c-2.7-0.5-4.6-1.4-5.9-2.5c-1.3-1.1-2-2.6-2-4.3c0-2.2,1.1-4.1,3.4-5.6c2.3-1.5,5.2-2.2,8.8-2.2c1.9,0,3.7,0.2,5.4,0.5
		c1.7,0.3,3.4,0.9,5.2,1.7L131.5,7l-0.4,0c-0.3-1.9-1.3-3.4-2.8-4.5c-1.5-1.1-3.4-1.6-5.8-1.6c-2.3,0-4.2,0.5-5.8,1.7
		c-1.5,1.1-2.3,2.5-2.3,4.1c0,0.8,0.2,1.6,0.7,2.3c0.5,0.7,1.1,1.2,2,1.6c1.2,0.5,3.3,1,6.4,1.4c1.3,0.2,2.3,0.3,3,0.4
		c2.6,0.4,4.5,1.2,5.8,2.2c1.3,1.1,1.9,2.5,1.9,4.3c0,2.6-1.2,4.8-3.6,6.5c-2.4,1.7-5.5,2.6-9.3,2.6c-2.4,0-4.7-0.2-6.9-0.7
		C112.4,26.9,110.5,26.2,108.9,25.4L108.9,25.4z M75.1,27.3v-0.2c1-0.6,2.1-1.7,3.2-3.2c1.2-1.6,2.4-3.5,3.6-5.9l9.3-18h0.3
		l9.9,18.1c1.9,3.4,3.2,5.7,4.1,6.8c0.9,1.1,1.7,1.8,2.5,2.2l0,0.2c-0.7,0-1.4-0.1-2-0.1c-0.6,0-1.2,0-1.7,0c-0.7,0-1.6,0-2.6,0
		l-0.4,0l-1.5-3.5c-0.1-0.2-0.1-0.4-0.2-0.7c-0.3-0.8-1-2.3-2-4.4l-1.8-3.5c-0.4,0-0.8,0-1.2-0.1c-0.4,0-0.9,0-1.5,0h-5.9
		c-0.7,0-1.2,0-1.6,0c-0.4,0-0.7,0-1,0.1l-1.5,3.1c-0.7,1.4-1.2,2.6-1.5,3.6c-0.3,0.9-0.5,1.7-0.5,2.2c0,0.8,0.2,1.4,0.6,1.8
		c0.4,0.5,1.1,0.8,2,1.1v0.2c-0.5,0-1-0.1-1.5-0.1c-0.5,0-1.4,0-2.5,0c-1,0-1.9,0-2.6,0C76.4,27.2,75.7,27.3,75.1,27.3L75.1,27.3z
		 M85.2,14.1c0.4,0,0.7,0,1.2,0.1c0.4,0,1,0,1.9,0H92c0.8,0,1.5,0,1.9,0c0.5,0,0.9,0,1.3-0.1l-5-9.8L85.2,14.1L85.2,14.1z
		 M43.4,27.2v-0.3c1.4-0.3,2.3-1.3,2.9-2.9c0.6-1.6,0.8-4.5,0.8-8.9V9.3h0V0.8l0.3,0c0.2,0,0.8,0,1.6,0c0.6,0,1.1,0,1.5,0
		c4,4.4,7.5,8.1,10.5,11.3c3,3.1,6,6,9,8.6v-7.3h0V0.8l0.3,0c0.9,0,2.4-0.1,4.4-0.2h0.1v0.3c-1.4,0.5-2.4,1.5-2.9,2.9
		c-0.5,1.4-0.8,4.3-0.8,8.7V28h-0.4c-3.9-4.7-10.1-11.4-18.5-20c-1.8-1.9-3.1-3.3-4-4.2V14c0,5.3,0.3,8.7,0.8,10.1
		c0.5,1.5,1.5,2.4,2.8,2.8v0.3h-2.6h-2.8H43.4L43.4,27.2z M32.3,27.3l0-0.3c1.2-0.3,2-0.9,2.4-1.9c0.4-1,0.6-3.4,0.6-7.1V4.2
		c0-0.9-0.2-1.7-0.6-2.2c-0.4-0.5-1.1-0.9-2-1.1V0.6c0.1,0,0.3,0,0.6,0c1.8,0.1,3,0.1,3.7,0.1c1.3,0,2.7,0,4-0.1c0.2,0,0.4,0,0.5,0
		h0v0.3c-0.9,0.2-1.5,0.5-2,1c-0.4,0.5-0.6,1.3-0.6,2.2v14.1c0,3.5,0.2,5.7,0.6,6.7c0.4,1,1.2,1.7,2.5,2v0.3c-1.1,0-2.1-0.1-2.9-0.1
		c-0.9,0-1.6,0-2.2,0c-0.8,0-1.5,0-2.3,0C34,27.2,33.2,27.3,32.3,27.3L32.3,27.3z M24.2,27.2c-0.3-0.7-0.6-1.4-0.9-2
		c-0.3-0.7-0.6-1.4-0.8-2.1L21.4,20c-0.9-2.4-2.1-4.1-3.7-5c-1.6-1-4.3-1.4-8.3-1.4c-0.3,0-0.8,0-1.5,0c-0.6,0-1.1,0.1-1.4,0.1V18
		c0,3.6,0.2,5.9,0.6,7c0.4,1,1.2,1.7,2.3,2l0,0.3c-0.9,0-1.8-0.1-2.6-0.1c-0.8,0-1.6,0-2.3,0c-0.7,0-1.5,0-2.2,0
		c-0.8,0-1.5,0.1-2.3,0.1L0,27c1.1-0.3,1.9-0.9,2.3-1.9c0.4-1,0.6-3.3,0.6-7.1V5.6c0-1.8-0.2-3-0.5-3.5c-0.3-0.5-1-0.9-1.8-1V0.7
		c0.9,0,1.8,0,2.8,0c0.9,0,2.2,0,3.8,0h4.5c3.1,0,5.4,0,6.7,0.1c1.4,0.1,2.5,0.3,3.4,0.5c1.8,0.5,3.2,1.2,4.1,2.2
		c1,1,1.4,2.1,1.4,3.5c0,2-0.9,3.5-2.8,4.6c-1.9,1.1-4.5,1.7-7.8,1.8c2.2,0.3,4.1,0.8,5.5,1.7c1.4,0.9,2.5,2.1,3.3,3.7
		c0.4,0.8,0.8,1.8,1.4,3.2c1.2,2.9,2.3,4.5,3.5,4.8v0.4c-0.6,0-1.3,0-2,0c-0.8,0-1.3,0-1.5,0c-0.4,0-0.8,0-1.2,0
		C25.1,27.2,24.7,27.2,24.2,27.2L24.2,27.2z M6.6,12.6c0.4,0,0.9,0,1.4,0.1c0.5,0,0.8,0,0.8,0c5.8,0,9.6-0.4,11.4-1.2
		c1.8-0.8,2.7-2.3,2.7-4.3c0-1.8-0.9-3.2-2.7-4.1c-1.8-0.9-4.6-1.3-8.3-1.3c-0.9,0-1.7,0-2.6,0c-0.9,0-1.8,0-2.8,0.1V12.6L6.6,12.6z
		"/>
	<path class="st0" d="M300.7,47.1h-2.5v-3.3l-5.9-4.5h2.9c2.5,2.1,4,3.4,4.5,3.8c0.3-0.3,1.8-1.6,4.5-3.8h2.8l-6.3,4.5V47.1
		L300.7,47.1z M273.9,47.1v-7.8h2.5v6.9h8v0.9H273.9L273.9,47.1z M251.7,43.8h5.6c-1.6-2-2.6-3.2-2.8-3.6
		C254.1,40.8,253.2,42,251.7,43.8L251.7,43.8z M257.8,44.6h-6.6l-1.9,2.4h-2.6l6.3-7.8h3.1l6.4,7.8h-2.7L257.8,44.6L257.8,44.6z
		 M231,47.1v-6.9h-5.7v-0.9h13.9v0.9h-5.7v6.9H231L231,47.1z M212.4,39.2h2.5v7.8h-2.5V39.2L212.4,39.2z M172.7,47.1h-2.3v-7.8h2.8
		l5.9,3.9c1.3,0.9,2.5,1.7,3.4,2.5c-0.2-0.7-0.3-1.8-0.3-3.2v-3.3h2.3v7.8H182l-5.9-3.9c-1.5-1-2.7-1.9-3.6-2.6
		c0.1,0.8,0.2,1.8,0.2,3.2V47.1L172.7,47.1z M155,39.2h2.5v7.8H155V39.2L155,39.2z M127.7,42.6v0.9h-7.3v2.7h8.1v0.9h-10.6v-7.8
		h10.2v0.9h-7.7v2.4H127.7L127.7,42.6z M92.9,40.1v6.1c0.4,0,1.2,0,2.5,0c2.6,0,4.5-0.3,5.9-0.9c1.4-0.6,2.1-1.4,2.1-2.4
		c0-1-0.6-1.7-1.9-2.2c-1.3-0.5-3.2-0.8-5.6-0.8C94.6,40,93.7,40.1,92.9,40.1L92.9,40.1z M90.4,47.1v-7.7c1.7-0.1,3.4-0.2,5.3-0.2
		c3.5,0,6.1,0.3,7.8,1c1.7,0.7,2.5,1.6,2.5,2.8c0,1.3-0.9,2.3-2.7,3.1c-1.8,0.8-4.6,1.1-8.3,1.1C93.2,47.2,91.7,47.1,90.4,47.1
		L90.4,47.1z M68.2,43.8h5.6c-1.6-2-2.6-3.2-2.8-3.6C70.6,40.8,69.6,42,68.2,43.8L68.2,43.8z M74.3,44.6h-6.6l-1.9,2.4h-2.6l6.3-7.8
		h3.1l6.4,7.8h-2.7L74.3,44.6L74.3,44.6z M49.6,47.1l-0.5-4.3c-0.1-1.2-0.2-2.1-0.3-2.6c-0.6,0.9-1.3,1.8-2.1,2.7L43.2,47h-1.9
		c-2.2-2.8-3.5-4.4-3.9-5c-0.4-0.5-0.8-1.1-1.2-1.8c-0.1,1.5-0.3,2.6-0.4,3.5l-0.5,3.3h-2.4l1.3-7.8h3.2c2.3,2.7,3.5,4.3,3.9,4.7
		c0.3,0.4,0.7,1,1.1,1.7c0.6-0.9,1.2-1.8,1.9-2.5l3.4-3.8h3.2l1.1,7.8H49.6L49.6,47.1z"/>
</g>
</svg>
